<svg width="60" height="14" viewBox="0 0 60 14" fill="none" xmlns="http://www.w3.org/2000/svg">
<path d="M15.5927 11.8272C15.617 12.1316 15.7327 12.4359 15.9396 12.7402C16.1465 13.0445 16.25 13.2697 16.25 13.4157V13.4888C16.25 13.72 16.1039 13.8357 15.8118 13.8357H12.1601C11.868 13.8357 11.7219 13.72 11.7219 13.4888V13.4157C11.7219 13.2818 11.8375 13.0627 12.0688 12.7584C12.3001 12.4541 12.4036 12.1437 12.3792 11.8272L12.1966 8.59551C12.1479 7.68258 12.0262 7.03745 11.8315 6.66011C11.6367 6.2706 11.3385 6.07584 10.9368 6.07584C10.5716 6.07584 10.2917 6.23408 10.0969 6.55056C9.90215 6.86704 9.80478 7.28698 9.80478 7.81039C9.84129 8.06601 9.85955 8.32163 9.85955 8.57725V11.8272C9.85955 12.1316 9.9691 12.4359 10.1882 12.7402C10.4073 13.0445 10.5169 13.2697 10.5169 13.4157V13.4888C10.5169 13.72 10.3708 13.8357 10.0787 13.8357H6.44522C6.15309 13.8357 6.00702 13.72 6.00702 13.4888V13.4157C6.00702 13.2697 6.11049 13.0445 6.31742 12.7402C6.53652 12.4359 6.64607 12.1316 6.64607 11.8272V8.35815C6.64607 6.83661 6.23221 6.07584 5.40449 6.07584C5.00281 6.07584 4.6985 6.23408 4.49157 6.55056C4.28464 6.86704 4.18118 7.28698 4.18118 7.81039V11.8272C4.18118 12.1316 4.31508 12.4359 4.58287 12.7402C4.85066 13.0445 4.98455 13.2697 4.98455 13.4157V13.4888C4.98455 13.72 4.83848 13.8357 4.54635 13.8357H0.602528C0.310393 13.8357 0.164326 13.72 0.164326 13.4888V13.4157C0.164326 13.2697 0.298221 13.0445 0.566011 12.7402C0.833802 12.4359 0.967697 12.1316 0.967697 11.8272V8.23034C0.967697 7.98689 0.882491 7.77996 0.712079 7.60955C0.553839 7.42697 0.395599 7.26873 0.23736 7.13483C0.0791199 7.00094 0 6.86095 0 6.71489V6.66011C0 6.50187 0.146067 6.34972 0.438202 6.20365L3.17697 4.94382C3.39607 4.84644 3.56648 4.84644 3.6882 4.94382C3.80993 5.0412 3.87079 5.18727 3.87079 5.38202V6.03933C4.43071 5.2603 5.24017 4.87079 6.29916 4.87079C7.65028 4.87079 8.64841 5.36985 9.29354 6.36798C9.53699 5.89326 9.89607 5.52809 10.3708 5.27247C10.8455 5.00468 11.3872 4.87079 11.9958 4.87079C12.8844 4.87079 13.639 5.16901 14.2598 5.76545C14.8928 6.36189 15.258 7.34176 15.3553 8.70506L15.5927 11.8272Z" fill="white"/>
<path d="M25.5969 11.8272C25.6334 12.1194 25.7004 12.3567 25.7977 12.5393C25.9073 12.7097 26.0107 12.8193 26.1081 12.868C26.2177 12.9167 26.3151 12.9775 26.4003 13.0506C26.4855 13.1236 26.5281 13.2149 26.5281 13.3244C26.5281 13.7261 25.8403 13.927 24.4649 13.927C23.9049 13.927 23.485 13.86 23.205 13.7261C22.9372 13.5922 22.7668 13.367 22.6938 13.0506C22.2312 13.6835 21.4583 14 20.375 14C19.3525 14 18.5187 13.7626 17.8736 13.2879C17.2406 12.8132 16.9241 12.1255 16.9241 11.2247C16.9241 10.3483 17.2406 9.66667 17.8736 9.17978C18.5065 8.68071 19.2856 8.43118 20.2107 8.43118C20.9288 8.43118 21.5435 8.58333 22.0548 8.88764V8.83287C21.933 7.62781 21.793 6.81227 21.6348 6.38624C21.4887 5.96021 21.1966 5.74719 20.7584 5.74719C20.4784 5.74719 20.2533 5.875 20.0828 6.13062C19.9124 6.38624 19.7846 6.6662 19.6994 6.9705C19.6264 7.27481 19.4803 7.55477 19.2612 7.81039C19.0421 8.06601 18.75 8.19382 18.3848 8.19382C18.0075 8.19382 17.6971 8.08427 17.4536 7.86517C17.2224 7.64607 17.1067 7.36002 17.1067 7.00702C17.1067 6.30103 17.4597 5.77153 18.1657 5.41854C18.8717 5.05337 19.7359 4.87079 20.7584 4.87079C21.9756 4.87079 22.9798 5.20552 23.771 5.875C24.5744 6.5323 25.0491 7.42697 25.1952 8.55899L25.5969 11.8272ZM21.3792 13.0688C21.6592 13.0688 21.8843 12.9349 22.0548 12.6671C22.2373 12.3993 22.3286 12.095 22.3286 11.7542L22.2556 10.9143C22.1339 9.90403 21.7565 9.39888 21.1236 9.39888C20.8436 9.39888 20.6184 9.51451 20.448 9.74579C20.2776 9.96489 20.1924 10.2631 20.1924 10.6404C20.1924 11.3221 20.2959 11.9003 20.5028 12.375C20.7219 12.8375 21.014 13.0688 21.3792 13.0688Z" fill="white"/>
<path d="M36.8949 11.8272C36.9192 12.1316 37.0348 12.4359 37.2418 12.7402C37.4487 13.0323 37.5522 13.2575 37.5522 13.4157V13.4888C37.5522 13.72 37.4061 13.8357 37.114 13.8357H33.4623C33.1701 13.8357 33.0241 13.72 33.0241 13.4888V13.4157C33.0241 13.2697 33.1397 13.0445 33.371 12.7402C33.6023 12.4359 33.7057 12.1316 33.6814 11.8272L33.4988 8.55899C33.4501 7.65824 33.3284 7.01919 33.1336 6.64185C32.951 6.26451 32.6528 6.07584 32.239 6.07584C31.8494 6.07584 31.5512 6.23408 31.3443 6.55056C31.1495 6.86704 31.0522 7.29916 31.0522 7.84691V11.8272C31.0522 12.1316 31.1861 12.4359 31.4538 12.7402C31.7216 13.0445 31.8555 13.2697 31.8555 13.4157V13.4888C31.8555 13.72 31.7095 13.8357 31.4173 13.8357H27.4735C27.1814 13.8357 27.0353 13.72 27.0353 13.4888V13.4157C27.0353 13.2697 27.1692 13.0445 27.437 12.7402C27.7048 12.4359 27.8387 12.1316 27.8387 11.8272V8.23034C27.8387 7.97472 27.7596 7.7617 27.6013 7.59129C27.4431 7.40871 27.2788 7.25655 27.1083 7.13483C26.9501 7.00094 26.871 6.86095 26.871 6.71489V6.66011C26.871 6.50187 27.0171 6.34972 27.3092 6.20365L29.8654 4.94382C30.0966 4.84644 30.267 4.84644 30.3766 4.94382C30.4983 5.02903 30.5592 5.17509 30.5592 5.38202V6.24017C31.0704 5.32725 31.9407 4.87079 33.1701 4.87079C34.0831 4.87079 34.8682 5.16901 35.5255 5.76545C36.1828 6.36189 36.5601 7.32959 36.6575 8.66854L36.8949 11.8272Z" fill="white"/>
<path d="M47.4886 11.8272C47.4886 12.1316 47.6103 12.4359 47.8538 12.7402C48.0972 13.0323 48.2189 13.2514 48.2189 13.3975V13.4705C48.2189 13.7018 48.079 13.8174 47.799 13.8174H45.188C44.8716 13.8174 44.7133 13.6653 44.7133 13.361V13.1966C44.1412 13.7322 43.3987 14 42.4858 14C41.3051 14 40.2887 13.5983 39.4366 12.7949C38.5967 11.9794 38.1768 10.8596 38.1768 9.43539C38.1768 8.10861 38.6028 7.01919 39.4549 6.16713C40.3069 5.3029 41.3233 4.87079 42.504 4.87079C43.2466 4.87079 43.8734 5.0412 44.3847 5.38202V2.95365C44.3847 2.71021 44.3055 2.50328 44.1473 2.33287C43.9891 2.15028 43.8247 1.99813 43.6543 1.8764C43.4961 1.74251 43.417 1.60253 43.417 1.45646V1.40169C43.417 1.17041 43.5569 1.01217 43.8369 0.926966L46.6852 0.0688202C47.2208 -0.101592 47.4886 0.0444756 47.4886 0.507022V11.8272ZM43.2161 13.1053C43.5448 13.1175 43.8187 12.9836 44.0378 12.7037C44.269 12.4237 44.3847 12.0463 44.3847 11.5716V8.04775C44.3847 7.46348 44.2143 6.94007 43.8734 6.47753C43.5448 6.00281 43.1674 5.76545 42.7414 5.76545C41.8407 5.76545 41.3599 6.51404 41.299 8.01124C41.2746 8.58333 41.3233 9.24672 41.4451 10.0014C41.579 10.7561 41.7981 11.4621 42.1024 12.1194C42.4188 12.7645 42.7901 13.0932 43.2161 13.1053Z" fill="white"/>
<path d="M58.3312 11.809C58.3312 12.1376 58.3678 12.3872 58.4408 12.5576C58.526 12.728 58.6173 12.8254 58.7147 12.8497C58.8242 12.8619 58.9155 12.9045 58.9886 12.9775C59.0738 13.0506 59.1164 13.1662 59.1164 13.3244C59.1164 13.5557 58.9581 13.714 58.6416 13.7992C58.3373 13.8844 57.8687 13.927 57.2357 13.927C56.6636 13.927 56.2437 13.8478 55.9759 13.6896C55.7203 13.5314 55.5681 13.2575 55.5195 12.868C55.0326 13.6227 54.1744 14 52.945 14C51.9712 14 51.1557 13.6835 50.4984 13.0506C49.8533 12.4054 49.5307 11.5229 49.5307 10.4031V7.35393C49.5307 7.03745 49.409 6.73315 49.1655 6.44101C48.9221 6.14888 48.8004 5.94195 48.8004 5.82022V5.74719C48.8004 5.50375 48.9403 5.36376 49.2203 5.32725L51.9408 4.96208C52.5129 4.88904 52.7989 5.01077 52.7989 5.32725L52.7442 10.7317C52.732 11.4621 52.8172 11.9916 52.9998 12.3202C53.1945 12.6367 53.4989 12.7949 53.9127 12.7949C54.2535 12.7949 54.5396 12.6306 54.7709 12.302C55.0021 11.9611 55.1178 11.5169 55.1178 10.9691V7.35393C55.1178 7.03745 54.996 6.73315 54.7526 6.44101C54.5092 6.14888 54.3874 5.94195 54.3874 5.82022V5.74719C54.3874 5.50375 54.5274 5.36376 54.8074 5.32725L57.5279 4.96208C58.0635 4.88904 58.3312 5.01077 58.3312 5.32725V11.809Z" fill="white"/>
</svg>
